<svg width="24" height="24" viewBox="0 0 24 24" fill="none" xmlns="http://www.w3.org/2000/svg">
<path d="M3.92383 17.3887C3.92383 18.0918 4.4707 18.5606 5.36914 18.5606H9.23633C9.31445 20.3379 10.7207 21.9199 12.7227 21.9199C14.7246 21.9199 16.1309 20.3477 16.2188 18.5606H20.0762C20.9746 18.5606 21.5215 18.0918 21.5215 17.3887C21.5215 16.4414 20.5938 15.6113 19.7832 14.791C19.1582 14.1563 19.002 12.8574 18.9141 11.7246C18.8262 8.13087 17.8594 5.78712 15.418 4.89845C15.0957 3.68751 14.0898 2.74024 12.7227 2.74024C11.3555 2.74024 10.3594 3.68751 10.0273 4.89845C7.58594 5.78712 6.61914 8.13087 6.53125 11.7246C6.45312 12.8574 6.28711 14.1563 5.66211 14.791C4.85156 15.6113 3.92383 16.4414 3.92383 17.3887ZM5.85742 17.0762V16.959C6.05273 16.6953 6.59961 16.168 7.06836 15.6309C7.72266 14.8984 8.03516 13.6582 8.11328 11.8711C8.20117 7.93555 9.38281 6.65626 10.9355 6.23634C11.1699 6.17774 11.2969 6.07032 11.3066 5.82618C11.3457 4.86915 11.8828 4.21485 12.7227 4.21485C13.5625 4.21485 14.1094 4.86915 14.1387 5.82618C14.1582 6.07032 14.2852 6.17774 14.5098 6.23634C16.0625 6.65626 17.2441 7.93555 17.332 11.8711C17.4199 13.6582 17.7227 14.8984 18.377 15.6309C18.8555 16.168 19.3926 16.6953 19.5781 16.959V17.0762H5.85742ZM10.7793 18.5606H14.6758C14.6074 19.7813 13.8164 20.5625 12.7227 20.5625C11.6289 20.5625 10.8477 19.7813 10.7793 18.5606Z" fill="white" fill-opacity="0.6"/>
</svg>
